PathFileType	4	(X/Y/Z)	Patient4_TMGait_0pt6_02_right_10.trc.trc
DataRate	CameraRate	NumFrames	NumMarkers	Units	OrigDataRate	OrigDataStartFrame	OrigNumFrames
75.675675675676	75.675675675676	7	33	mm	75.675675675676	89	       141
Frame#	Time	Sacral			L.Shoulder			Chest			R.Shoulder			Neck			R.ASIS			L.ASIS			R.Thigh.Superior			R.Thigh.Lateral			R.Thigh.Inferior			R.Patella			L.Thigh.Superior			L.Thigh.Lateral			L.Thigh.Inferior			L.Patella			L.Shank.Superior			L.Shank.Lateral			L.Shank.Inferior			R.Shank.Superior			R.Shank.Lateral			R.Shank.Inferior			R.Heel			R.Midfoot.Superior			R.Midfoot.Lateral			R.Toe			L.Heel			L.Midfoot.Lateral			L.Midfoot.Superior			L.Toe			L.Elbow			L.Wrist			R.Elbow			R.Wrist			
		X1	Y1	Z1	X2	Y2	Z2	X3	Y3	Z3	X4	Y4	Z4	X5	Y5	Z5	X6	Y6	Z6	X7	Y7	Z7	X8	Y8	Z8	X9	Y9	Z9	X10	Y10	Z10	X11	Y11	Z11	X12	Y12	Z12	X13	Y13	Z13	X14	Y14	Z14	X15	Y15	Z15	X16	Y16	Z16	X17	Y17	Z17	X18	Y18	Z18	X19	Y19	Z19	X20	Y20	Z20	X21	Y21	Z21	X22	Y22	Z22	X23	Y23	Z23	X24	Y24	Z24	X25	Y25	Z25	X26	Y26	Z26	X27	Y27	Z27	X28	Y28	Z28	X29	Y29	Z29	X30	Y30	Z30	X31	Y31	Z31	X32	Y32	Z32	X33	Y33	Z33	

89	12.752857142857	738.545549520289	1015.313493200562	429.734442385094	918.080731464968	1433.176510504778	236.924280409652	1024.709946305536	1365.789165389859	395.758743505092	947.833669469260	1446.655356509056	568.976821439683	918.317145195912	1497.577470101765	386.847033341597	961.186813578145	947.495867880483	548.984055779394	950.986791272891	959.140429662733	275.230413886692	1009.803369076607	748.621133604355	531.752256149383	935.956912812456	637.334757969832	598.336236826295	1021.162605352031	580.296882896547	526.127753121173	1014.972228495479	468.669079212608	547.963704209593	1004.474504094466	757.537955335401	300.698698452230	918.179873571949	637.538888590837	248.846103282038	1011.112913193396	566.011265784316	307.995352555400	1015.567243230979	497.059980246418	317.596698843924	993.929770068321	424.259920807852	313.246236859025	909.624778936109	301.073817835063	274.018125428915	978.091359808606	198.051656462009	344.708946839062	934.501046170868	403.488761613977	549.510431849131	810.403288019893	368.222726460703	605.720717744183	794.121593539841	260.646185659822	553.147506098601	589.966951977816	199.713572784307	518.207689863531	758.830174594572	143.454022703498	560.326163385770	648.065372921295	137.616882590063	589.605129571226	825.853795967232	37.639841803743	582.712126535800	865.623583727601	38.240308507123	402.616171728589	934.770652713256	35.028977927619	317.363834775612	1018.504891891523	97.497945698398	337.542137725510	1145.986134919327	46.450126731971	304.570623073358	858.472840739563	1083.577909520222	119.208273045418	993.768605533444	858.240666974242	116.864899525986	911.920359734940	1104.392537688705	700.042584056508	1048.533825521818	883.295125689171	686.171184114494	
90	12.766071428571	736.574128940737	1015.724452458437	427.301012533265	918.406196612274	1432.905372629677	233.409966170977	1023.622565065174	1366.110522884107	393.396569594507	945.443536101810	1447.742999252301	565.680463602319	917.571159651569	1498.005464046181	383.052619464760	959.467762661015	948.368980332816	547.429163404261	949.656270935372	959.615795275465	273.495018323547	1014.115044516188	753.190571299704	529.753082751531	945.051529385492	639.909894448151	597.382789599123	1032.054874853460	585.170915558518	525.128402911264	1028.585956793177	472.346210589859	547.363448681238	1000.766878961247	756.687035221272	297.915402284587	912.465105917121	637.936222324394	246.935555505544	1004.731002968837	565.317761272464	305.590339706999	1008.314997387228	496.552106198605	315.230660832081	986.534295217243	424.048439721016	311.237205517724	901.399523200256	301.070982797114	273.058918355781	970.212442575563	198.034019860456	343.557324616309	946.700198837678	407.143234384241	548.585319313455	821.173093990896	375.167511005939	603.994299820842	802.213860699333	268.167655867963	551.542530339711	596.782752831494	214.084183769613	515.393696926191	763.487061298040	151.595277714818	558.581379768479	652.196396114984	149.663037167538	587.095099315070	826.655087416414	41.381416867412	581.452071610214	857.579710643859	38.289283827152	402.440851167656	926.724526872235	34.909719606513	317.201888858546	1010.519823440147	97.455027184869	337.124617758312	1137.976555987955	46.310316326180	304.465774914174	865.406419851980	1082.940940146920	113.521217713566	1007.738923798606	861.991562547117	111.867565509586	901.942624317584	1106.441770923411	696.921542276474	1025.259625846229	876.893591462660	687.095772463119	
91	12.779285714286	734.530524073814	1016.112733463006	425.100991509590	918.513657435212	1432.521301550359	230.042192440658	1022.364583431325	1366.409407411879	391.172448799372	942.911586440400	1448.885131663935	562.490250622590	916.707053681058	1498.382023659785	379.364049447754	957.742956616973	949.210517520881	545.923411757996	948.185259476255	960.159674603564	271.835876836015	1018.022108893445	757.971332402715	527.726219831757	953.756332503647	642.901499491618	596.468715289560	1042.405031773843	590.546353891198	524.148428805454	1041.872151388836	476.698136739866	546.703171466226	997.030382208634	755.956842139458	295.514641403203	906.847470053413	638.363778990107	245.285752711184	998.460905687733	564.691331663485	303.464174793714	1001.193750489651	496.106281895489	313.168570632529	979.255261625821	423.900494192369	309.492998311737	893.280632680592	301.181861311495	272.294747738282	962.390424196823	198.060131323481	342.520253198188	958.916068731261	411.205078438576	547.631353138408	832.196737121042	381.859719622401	602.206992394352	811.143264044322	275.397010425845	549.807287355901	604.855463056740	226.686826468945	512.451233110101	769.725960532718	159.487848557040	556.602940339794	658.085143560267	160.546665150492	584.416468039096	829.829071379746	45.843462720666	579.857804074293	849.553052678643	38.366270511500	402.265217106828	918.710969019414	34.823344859552	317.060529867288	1002.557997565897	97.452176989253	336.727138187626	1129.982242270767	46.208336551501	304.366016166408	872.643212587415	1082.281477936482	108.089725052405	1021.434432263420	865.679337574950	107.161747624731	891.639613579749	1108.853000439799	694.039972614172	1001.713514514138	872.066963541818	687.779994962651	
92	12.792500000000	732.472886253763	1016.502798645208	423.132664144835	918.400518562142	1432.050756195767	226.815811369557	1020.950272388478	1366.718684185424	389.066583542585	940.270332694514	1450.106586477816	559.391391136494	915.715760769265	1498.722337768804	375.775102641298	956.028459493669	950.039259525642	544.439339574184	946.617276237944	960.778619501939	270.246740347641	1021.468054056731	762.889293223588	525.702360240674	961.934648001719	646.245316599215	595.600059463594	1052.080403334835	596.326165052531	523.202640306894	1054.653365429643	481.638795340895	546.016848382271	993.299299704327	755.339845928009	293.459343066951	901.339182928392	638.809642126287	243.881483619229	992.321618435559	564.122547970020	301.589765579889	994.224634989509	495.717933987085	311.386136097618	972.108050229862	423.809078780678	307.995308821713	885.282605045082	301.399217063485	271.708253172065	954.630444362226	198.127458717780	341.595581756527	971.002513518454	415.581915504553	546.678555128449	843.350713704386	388.083464746798	600.437054545516	820.874070114556	282.060031067220	548.021996862800	614.103829787565	237.065025789239	509.513105441856	777.603667089341	166.739349807038	554.495793770099	665.742733917987	169.797616915659	581.690876230764	835.551081604802	50.700133971907	578.024710033649	841.541153412168	38.473340277705	402.092704151483	910.728940771887	34.767792609285	316.940873629323	994.618104244737	97.484279634048	336.352408035953	1122.002892894862	46.140762910456	304.272513966505	880.119632038521	1081.640530006335	102.975157220310	1034.803874723481	869.299892307189	102.786116116036	881.056474686889	1111.691549502233	691.413575522564	978.147885417472	868.822544946262	688.213303336975	
93	12.805714285714	730.448324707488	1016.900786091061	421.387354632852	918.082925579281	1431.509261410000	223.722404108360	1019.400294369754	1367.054329049700	387.062321684385	937.550453620815	1451.414912475661	556.369903677672	914.590681581203	1499.032302943368	372.276891157603	954.335486789179	950.860994627172	542.972654210697	944.995796906560	961.463127247428	268.733516078889	1024.429882841641	767.860678520316	523.723522363757	969.489930307402	649.852100792288	594.786485998548	1060.991422419233	602.387511763262	522.307336408232	1066.784598186091	487.056871597623	545.333336096226	989.596364691193	754.818566546982	291.707982772854	895.953131184356	639.262658420961	242.690948666763	986.323762081930	563.601182716024	299.933374096003	987.418154718185	495.377876247049	309.841743092666	965.100093308854	423.762128012489	306.709317474402	877.413153690047	301.708370985970	271.268666919243	946.933902675459	198.228986407164	340.771388365983	982.840192135590	420.160736772242	545.753150161689	854.537526686610	393.627196315349	598.758977771932	831.370563066660	287.900793817492	546.264615078695	624.457116662145	244.861724541012	506.707278379050	787.143602608254	172.991788557330	552.371294348042	675.152854965493	177.031187480640	579.045222389271	843.918285152686	55.571708636222	576.077451394717	833.539550804915	38.611552240261	401.925805665933	902.774609392278	34.738378244211	316.842343144349	986.698252569586	97.541621348922	336.001757094242	1114.037390932883	46.097474671856	304.187124039213	887.741567179434	1081.048020392094	98.228427893184	1047.792175174513	872.853642090641	98.771538214852	870.257827091811	1114.994685913965	689.047471085048	954.814537909366	867.115239676762	688.397325939674	
94	12.818928571429	728.487692636696	1017.295790933192	419.849458828017	917.590315785689	1430.901734048036	220.753278974726	1017.738676167673	1367.416141063226	385.148466490742	934.777670446195	1452.801093036068	553.415455105864	913.328317169415	1499.308950428171	368.861636790322	952.668786342416	951.667589291966	541.538950844651	943.361289652886	962.191843577232	267.312742794621	1026.909889986597	772.796039361885	521.835074777281	976.361934413380	653.616672036589	594.039023872013	1069.083194080522	608.590910018177	521.474876193409	1078.151974527919	492.824592303020	544.674705451466	985.936272196617	754.370454850355	290.220302728445	890.704021058224	639.712884859679	241.672173366580	980.473680796243	563.117254500960	298.458747732828	980.779092908741	495.073971737874	308.485851793630	958.235547549232	423.744151102894	305.592373820611	869.678112428112	302.089980833061	270.937352477806	939.300673151852	198.354201061852	340.030475357168	994.333867215475	424.819024854251	544.877437719490	865.682964273990	398.302179677108	597.235004958821	842.594971048745	292.704079999538	544.606389013798	635.860418633071	249.834270825125	504.149110691963	798.336085244311	177.954621855813	550.336355507492	686.278372400413	181.970822300195	576.600663462974	854.949451197118	60.087140069076	574.149564830641	825.543855984032	38.780667262825	401.766077054847	894.842911826579	34.728989469357	316.762833953589	978.796692530895	97.612428576209	335.675319737874	1106.084649490401	46.065094199024	304.111812588289	895.391705843350	1080.518632071975	93.888479584232	1060.339209358248	876.340811598955	95.137621441275	859.323414789475	1118.767340493564	686.936511555551	931.950582650987	866.848729407820	688.346593101385	
95	12.832142857143	726.605611925370	1017.664192834755	418.498776727243	916.958554160832	1430.225308977751	217.901924276280	1015.989716127598	1367.791743302370	383.320206458198	931.970793721315	1454.242992823995	550.523240650493	911.928622980096	1499.542818706437	365.525430004533	951.026405259427	952.439948406648	540.167690265496	941.749450237869	962.937123394073	266.009026527466	1028.925414082775	777.604587713568	520.078158112954	982.519951051215	657.427509692519	593.367576811035	1076.325448755544	614.790131727011	520.709073551988	1088.668805237724	498.806906561942	544.054762167970	982.329587590666	753.971745751387	288.960599309784	885.607775843996	640.151502084023	240.780675422612	974.775764180699	562.661336612658	297.131658223878	974.309597781548	494.792561027489	307.270531241223	951.518094241991	423.737998907984	304.602657281919	862.083895939315	302.522837585302	270.674436727175	931.730297885955	198.490400159346	339.355151342432	1005.407963399624	429.436016303754	544.069388707159	876.732259703976	401.958128821447	595.909461109085	854.505787535821	296.313071458793	543.108212862274	648.277129851516	251.861751493024	501.933878119387	811.140165790929	181.428994487890	548.485608227898	699.066664612865	184.461995135182	574.462988764794	868.589173181860	63.938928475109	572.367812489722	817.551210325004	38.978876299829	401.614416552960	886.928502233521	34.733199680525	316.699255159368	970.911864875509	97.685152451513	335.372507866443	1098.143839361422	46.030169812241	304.048135064014	902.938872665090	1080.051207414531	89.982082977944	1072.379385514676	879.757837926518	91.891236444344	848.343656351866	1122.981863111309	685.065801804111	909.766398760866	867.880987989136	688.088707825453	
